<svg width="32" height="32" viewBox="0 0 32 32" fill="none" xmlns="http://www.w3.org/2000/svg">
<style>
  .i { fill: #1C1917; }
  @media (prefers-color-scheme: dark) {
    .i { fill: #fff; }
  }
</style>
<mask id="mask0_14820_28032" style="mask-type:alpha" maskUnits="userSpaceOnUse" x="0" y="0" width="32" height="32">
<circle cx="16" cy="16" r="16" fill="#D9D9D9"/>
</mask>
<g mask="url(#mask0_14820_28032)">
<path d="M25.7227 1.24552C25.7227 4.3643 23.1944 6.89258 20.0756 6.89258L12.1588 6.89258C9.04003 6.89258 6.51175 4.3643 6.51175 1.24552L6.51175 0.706063C6.51175 -0.203582 7.24917 -0.940996 8.15881 -0.940996L24.0756 -0.940994C24.9852 -0.940994 25.7227 -0.203581 25.7227 0.706065L25.7227 1.24552Z" class="i"/>
<path d="M30.7545 25.4883C27.6357 25.4883 25.1074 22.96 25.1074 19.8412L25.1074 11.9244C25.1074 8.80566 27.6357 6.27738 30.7545 6.27738L31.2939 6.27738C32.2036 6.27738 32.941 7.01479 32.941 7.92444L32.941 23.8412C32.941 24.7509 32.2036 25.4883 31.2939 25.4883L30.7545 25.4883Z" class="i"/>
<path d="M6.51172 30.5196C6.51172 27.4008 9.03999 24.8726 12.1588 24.8726L20.0756 24.8726C23.1943 24.8726 25.7226 27.4008 25.7226 30.5196L25.7226 31.0591C25.7226 31.9687 24.9852 32.7061 24.0756 32.7061L8.15878 32.7061C7.24913 32.7061 6.51172 31.9687 6.51172 31.0591L6.51172 30.5196Z" class="i"/>
<path d="M1.48185 6.27734C4.60063 6.27734 7.12891 8.80562 7.12891 11.9244L7.12891 19.8412C7.1289 22.96 4.60063 25.4882 1.48185 25.4882L0.942391 25.4882C0.0327461 25.4882 -0.704668 24.7508 -0.704668 23.8412L-0.704666 7.9244C-0.704666 7.01476 0.0327473 6.27734 0.942393 6.27734L1.48185 6.27734Z" class="i"/>
<ellipse cx="16.2203" cy="15.8825" rx="6.05237" ry="6.15495" class="i"/>
</g>
</svg>
